<svg width="14" height="14" viewBox="0 0 14 14" fill="none" xmlns="http://www.w3.org/2000/svg">
<path d="M0.228452 13.7715C0.537453 14.0718 1.04951 14.0718 1.34968 13.7715L6.99999 8.12031L12.6503 13.7715C12.9505 14.0718 13.4713 14.0805 13.7716 13.7715C14.0717 13.4624 14.0717 12.9592 13.7716 12.659L8.12122 6.9989L13.7716 1.34769C14.0717 1.04747 14.0806 0.535331 13.7716 0.235111C13.4626 -0.0739397 12.9505 -0.0739397 12.6503 0.235111L6.99999 5.88632L1.34968 0.235111C1.04951 -0.0739397 0.528624 -0.0827697 0.228452 0.235111C-0.0717204 0.544161 -0.0717204 1.04747 0.228452 1.34769L5.87876 6.9989L0.228452 12.659C-0.0717204 12.9592 -0.0805491 13.4713 0.228452 13.7715Z" fill="#2E2E2E"/>
</svg>
