<svg width="43" height="40" viewBox="0 0 43 40" fill="none" xmlns="http://www.w3.org/2000/svg">
<path d="M36.3846 0H6.61538C2.96181 0 0 2.98477 0 6.66667V33.3333C0 37.0152 2.96181 40 6.61538 40H36.3846C40.0382 40 43 37.0152 43 33.3333V6.66667C43 2.98477 40.0382 0 36.3846 0Z" fill="#6A994E"/>
<path d="M8.39809 28.3333V12H14.5339C15.4291 12 16.2472 12.1322 16.9882 12.3967C17.7445 12.6611 18.3852 13.0344 18.9099 13.5167C19.4347 13.9833 19.8439 14.5589 20.1371 15.2433C20.4303 15.9122 20.577 16.6511 20.577 17.46V17.6467C20.577 18.4712 20.4303 19.2255 20.1371 19.91C19.8439 20.5945 19.4271 21.1778 18.8868 21.66C18.362 22.1422 17.7291 22.5155 16.9882 22.78C16.2627 23.0445 15.4446 23.1767 14.5339 23.1767H12.0101V28.3333H8.39809ZM11.8943 20.3067H14.2097C14.6419 20.3067 15.0278 20.2445 15.3674 20.12C15.7224 19.98 16.0157 19.8012 16.2472 19.5833C16.4788 19.35 16.6562 19.07 16.7798 18.7433C16.9033 18.4167 16.965 18.0745 16.965 17.7167V17.5533C16.965 17.18 16.9033 16.8455 16.7798 16.55C16.6718 16.2545 16.5019 16.0056 16.2704 15.8033C16.0389 15.5856 15.761 15.4222 15.4369 15.3133C15.1127 15.1889 14.7345 15.1267 14.3023 15.1267H11.8943V20.3067ZM22.8919 28.3333V12H29.0277C29.9229 12 30.7411 12.1322 31.482 12.3967C32.2383 12.6611 32.8788 13.0344 33.4037 13.5167C33.9285 13.9833 34.3375 14.5589 34.6309 15.2433C34.9241 15.9122 35.0708 16.6511 35.0708 17.46V17.6467C35.0708 18.4712 34.9241 19.2255 34.6309 19.91C34.3375 20.5945 33.9207 21.1778 33.3806 21.66C32.8557 22.1422 32.2229 22.5155 31.482 22.78C30.7564 23.0445 29.9383 23.1767 29.0277 23.1767H26.5039V28.3333H22.8919ZM26.3881 20.3067H28.7035C29.1357 20.3067 29.5215 20.2445 29.8612 20.12C30.2161 19.98 30.5095 19.8012 30.7411 19.5833C30.9726 19.35 31.15 19.07 31.2736 18.7433C31.397 18.4167 31.4588 18.0745 31.4588 17.7167V17.5533C31.4588 17.18 31.397 16.8455 31.2736 16.55C31.1654 16.2545 30.9957 16.0056 30.7642 15.8033C30.5327 15.5856 30.2548 15.4222 29.9307 15.3133C29.6065 15.1889 29.2283 15.1267 28.7961 15.1267H26.3881V20.3067Z" fill="white"/>
</svg>
